<?xml version="1.0" encoding="UTF-8" standalone="no"?>
<svg
   xmlns:dc="http://purl.org/dc/elements/1.1/"
   xmlns:cc="http://creativecommons.org/ns#"
   xmlns:rdf="http://www.w3.org/1999/02/22-rdf-syntax-ns#"
   xmlns:svg="http://www.w3.org/2000/svg"
   xmlns="http://www.w3.org/2000/svg"
   xmlns:sodipodi="http://sodipodi.sourceforge.net/DTD/sodipodi-0.dtd"
   xmlns:inkscape="http://www.inkscape.org/namespaces/inkscape"
   width="24"
   height="24"
   viewBox="0 0 24 24"
   version="1.1"
   id="svg3725"
   sodipodi:docname="tracking_save.svg"
   inkscape:version="0.92.4 (5da689c313, 2019-01-14)">
  <metadata
     id="metadata3731">
    <rdf:RDF>
      <cc:Work
         rdf:about="">
        <dc:format>image/svg+xml</dc:format>
        <dc:type
           rdf:resource="http://purl.org/dc/dcmitype/StillImage" />
        <dc:title />
      </cc:Work>
    </rdf:RDF>
  </metadata>
  <defs
     id="defs3729" />
  <sodipodi:namedview
     pagecolor="#ffffff"
     bordercolor="#666666"
     borderopacity="1"
     objecttolerance="10"
     gridtolerance="10"
     guidetolerance="10"
     inkscape:pageopacity="0"
     inkscape:pageshadow="2"
     inkscape:window-width="1366"
     inkscape:window-height="699"
     id="namedview3727"
     showgrid="false"
     inkscape:zoom="7.8076374"
     inkscape:cx="13.132648"
     inkscape:cy="7.4185446"
     inkscape:window-x="-8"
     inkscape:window-y="-8"
     inkscape:window-maximized="1"
     inkscape:current-layer="svg3725" />
  <path
     style="stroke-width:1.3565073"
     d="M 6.7871094 1.0214844 L 6.7871094 12.212891 L 17.978516 12.212891 L 17.978516 2.8867188 L 16.113281 1.0214844 L 6.7871094 1.0214844 z M 9.1191406 1.953125 L 15.646484 1.953125 L 15.646484 5.2167969 L 9.1191406 5.2167969 L 9.1191406 1.953125 z M 13.783203 2.4199219 L 13.783203 4.7519531 L 15.181641 4.7519531 L 15.181641 2.4199219 L 13.783203 2.4199219 z M 8.1855469 7.0820312 L 16.580078 7.0820312 L 16.580078 11.279297 L 8.1855469 11.279297 L 8.1855469 7.0820312 z M 12.125 14.804688 C 11.627163 14.806044 11.137321 14.890983 10.667969 15.060547 L 11.210938 16.564453 C 11.505302 16.457288 11.813004 16.402344 12.125 16.402344 C 12.48312 16.402344 12.832477 16.472367 13.162109 16.609375 L 13.777344 15.134766 C 13.252375 14.915013 12.694735 14.804688 12.125 14.804688 z M 9.25 15.818359 L 7.0273438 17.148438 L 7.8476562 18.519531 L 10.070312 17.189453 L 9.25 15.818359 z M 15.144531 15.876953 L 14.353516 17.265625 L 16.603516 18.546875 L 17.396484 17.158203 L 15.144531 15.876953 z M 22.980469 15.996094 L 21.255859 17.753906 L 19.5 16.027344 L 18.546875 16.980469 L 20.304688 18.710938 L 18.578125 20.46875 L 19.53125 21.423828 L 21.263672 19.662109 L 23.019531 21.392578 L 23.972656 20.431641 L 22.214844 18.703125 L 23.941406 16.949219 L 22.980469 15.996094 z M 1.3144531 16.388672 C 0.5887217 16.388672 2.9605947e-16 16.975442 0 17.701172 C 0 18.426904 0.5887217 19.015625 1.3144531 19.015625 C 2.0401846 19.015625 2.6289062 18.425547 2.6289062 17.701172 C 2.6275663 16.975442 2.0401846 16.388672 1.3144531 16.388672 z M 5.8652344 17.810547 C 5.5396727 17.943481 5.1944889 18.011719 4.8417969 18.011719 C 4.5230182 18.011719 4.2118974 17.955579 3.9121094 17.845703 L 3.359375 19.34375 C 3.8368657 19.518729 4.3358203 19.609375 4.8417969 19.609375 C 5.4047475 19.609375 5.9544706 19.502033 6.4726562 19.289062 L 5.8652344 17.810547 z "
     id="path3723" />
</svg>
