<?xml version="1.0" encoding="UTF-8" standalone="no"?>
<svg
   xmlns:dc="http://purl.org/dc/elements/1.1/"
   xmlns:cc="http://creativecommons.org/ns#"
   xmlns:rdf="http://www.w3.org/1999/02/22-rdf-syntax-ns#"
   xmlns:svg="http://www.w3.org/2000/svg"
   xmlns="http://www.w3.org/2000/svg"
   xmlns:sodipodi="http://sodipodi.sourceforge.net/DTD/sodipodi-0.dtd"
   xmlns:inkscape="http://www.inkscape.org/namespaces/inkscape"
   width="24"
   height="24"
   viewBox="0 0 24 24"
   version="1.1"
   id="svg3725"
   sodipodi:docname="tracking.svg"
   inkscape:version="0.92.4 (5da689c313, 2019-01-14)">
  <metadata
     id="metadata3731">
    <rdf:RDF>
      <cc:Work
         rdf:about="">
        <dc:format>image/svg+xml</dc:format>
        <dc:type
           rdf:resource="http://purl.org/dc/dcmitype/StillImage" />
      </cc:Work>
    </rdf:RDF>
  </metadata>
  <defs
     id="defs3729" />
  <sodipodi:namedview
     pagecolor="#ffffff"
     bordercolor="#666666"
     borderopacity="1"
     objecttolerance="10"
     gridtolerance="10"
     guidetolerance="10"
     inkscape:pageopacity="0"
     inkscape:pageshadow="2"
     inkscape:window-width="1366"
     inkscape:window-height="699"
     id="namedview3727"
     showgrid="false"
     inkscape:zoom="11.041667"
     inkscape:cx="13.788604"
     inkscape:cy="11.967655"
     inkscape:window-x="-8"
     inkscape:window-y="-8"
     inkscape:window-maximized="1"
     inkscape:current-layer="svg3725" />
  <path
     style="stroke-width:1.3565073"
     d="M 4.0078125 5.2539062 A 3.0717404 3.0717402 0 0 0 0.93554688 8.3261719 A 3.0717404 3.0717402 0 0 0 4.0078125 11.398438 A 3.0717404 3.0717402 0 0 0 7.0800781 8.3261719 A 3.0717404 3.0717402 0 0 0 4.0078125 5.2539062 z M 20.693359 5.4355469 C 20.139629 5.4355469 19.655498 5.5589869 19.242188 5.8027344 C 18.831526 6.0438324 18.516778 6.3919545 18.296875 6.8476562 C 18.076972 7.3007085 17.966797 7.829524 17.966797 8.4335938 C 17.966797 9.3926869 18.190918 10.128589 18.638672 10.642578 C 19.086425 11.153918 19.732957 11.410156 20.578125 11.410156 C 21.166298 11.410156 21.698884 11.310035 22.175781 11.111328 L 22.175781 10.078125 C 21.595556 10.282131 21.101371 10.384766 20.693359 10.384766 C 19.721019 10.384766 19.234375 9.7369769 19.234375 8.4414062 C 19.234375 7.8187905 19.360889 7.3334033 19.615234 6.9863281 C 19.86958 6.6366035 20.229709 6.4609375 20.693359 6.4609375 C 20.905314 6.4609375 21.119941 6.4993384 21.339844 6.5761719 C 21.559746 6.6530053 21.778841 6.7443285 21.996094 6.8476562 L 22.394531 5.8457031 C 21.824904 5.572812 21.257688 5.4355469 20.693359 5.4355469 z M 8.2890625 5.5195312 L 8.2890625 11.330078 L 9.5214844 11.330078 L 9.5214844 9.1015625 L 10.177734 9.1015625 L 11.564453 11.330078 L 12.931641 11.330078 C 12.666698 10.94856 12.096968 10.104996 11.222656 8.7988281 C 11.567082 8.6478107 11.833375 8.438771 12.021484 8.1738281 C 12.209594 7.9062358 12.302734 7.6015419 12.302734 7.2597656 C 12.302734 6.6742419 12.113243 6.2392633 11.734375 5.953125 C 11.355507 5.6643373 10.771952 5.5195312 9.9824219 5.5195312 L 8.2890625 5.5195312 z M 13.662109 5.5195312 L 13.662109 11.330078 L 17.009766 11.330078 L 17.009766 10.3125 L 14.894531 10.3125 L 14.894531 8.8144531 L 16.861328 8.8144531 L 16.861328 7.8046875 L 14.894531 7.8046875 L 14.894531 6.5292969 L 17.009766 6.5292969 L 17.009766 5.5195312 L 13.662109 5.5195312 z M 3.9921875 5.8574219 A 2.4744668 2.4744668 0 0 1 6.4667969 8.3320312 A 2.4744668 2.4744668 0 0 1 3.9921875 10.806641 A 2.4744668 2.4744668 0 0 1 1.5175781 8.3320312 A 2.4744668 2.4744668 0 0 1 3.9921875 5.8574219 z M 9.5214844 6.5292969 L 9.8945312 6.5292969 C 10.291946 6.5292969 10.585328 6.5885033 10.773438 6.7050781 C 10.964196 6.821653 11.058594 7.0174282 11.058594 7.2929688 C 11.058594 7.5711588 10.96671 7.7744749 10.78125 7.9042969 C 10.59579 8.0341189 10.309388 8.0996094 9.9199219 8.0996094 L 9.5214844 8.0996094 L 9.5214844 6.5292969 z M 4.03125 6.9316406 A 1.413981 1.413981 0 0 0 2.6171875 8.3457031 A 1.413981 1.413981 0 0 0 4.03125 9.7597656 A 1.413981 1.413981 0 0 0 5.4453125 8.3457031 A 1.413981 1.413981 0 0 0 4.03125 6.9316406 z M 12.125 14.804688 C 11.627163 14.806044 11.137321 14.890983 10.667969 15.060547 L 11.210938 16.564453 C 11.505302 16.457288 11.813004 16.402344 12.125 16.402344 C 12.48312 16.402344 12.832477 16.472367 13.162109 16.609375 L 13.777344 15.134766 C 13.252375 14.915013 12.694735 14.804688 12.125 14.804688 z M 9.25 15.818359 L 7.0273438 17.148438 L 7.8476562 18.519531 L 10.070312 17.189453 L 9.25 15.818359 z M 15.144531 15.876953 L 14.353516 17.265625 L 16.603516 18.546875 L 17.396484 17.158203 L 15.144531 15.876953 z M 22.980469 15.996094 L 21.255859 17.753906 L 19.5 16.027344 L 18.546875 16.980469 L 20.304688 18.710938 L 18.578125 20.46875 L 19.53125 21.423828 L 21.263672 19.662109 L 23.019531 21.392578 L 23.972656 20.431641 L 22.214844 18.703125 L 23.941406 16.949219 L 22.980469 15.996094 z M 1.3144531 16.388672 C 0.5887217 16.388672 2.9605947e-16 16.975442 0 17.701172 C 0 18.426904 0.5887217 19.015625 1.3144531 19.015625 C 2.0401846 19.015625 2.6289062 18.425547 2.6289062 17.701172 C 2.6275663 16.975442 2.0401846 16.388672 1.3144531 16.388672 z M 5.8652344 17.810547 C 5.5396727 17.943481 5.1944889 18.011719 4.8417969 18.011719 C 4.5230182 18.011719 4.2118974 17.955579 3.9121094 17.845703 L 3.359375 19.34375 C 3.8368657 19.518729 4.3358203 19.609375 4.8417969 19.609375 C 5.4047475 19.609375 5.9544706 19.502033 6.4726562 19.289062 L 5.8652344 17.810547 z "
     id="path3723" />
</svg>
