<?xml version="1.0" encoding="UTF-8" standalone="no"?>
<svg
   xmlns:dc="http://purl.org/dc/elements/1.1/"
   xmlns:cc="http://creativecommons.org/ns#"
   xmlns:rdf="http://www.w3.org/1999/02/22-rdf-syntax-ns#"
   xmlns:svg="http://www.w3.org/2000/svg"
   xmlns="http://www.w3.org/2000/svg"
   xmlns:sodipodi="http://sodipodi.sourceforge.net/DTD/sodipodi-0.dtd"
   xmlns:inkscape="http://www.inkscape.org/namespaces/inkscape"
   width="24"
   height="24"
   viewBox="0 0 24 24"
   version="1.1"
   id="svg827"
   sodipodi:docname="wiki.svg"
   inkscape:version="0.92.4 (5da689c313, 2019-01-14)">
  <metadata
     id="metadata833">
    <rdf:RDF>
      <cc:Work
         rdf:about="">
        <dc:format>image/svg+xml</dc:format>
        <dc:type
           rdf:resource="http://purl.org/dc/dcmitype/StillImage" />
        <dc:title />
      </cc:Work>
    </rdf:RDF>
  </metadata>
  <defs
     id="defs831" />
  <sodipodi:namedview
     pagecolor="#ffffff"
     bordercolor="#666666"
     borderopacity="1"
     objecttolerance="10"
     gridtolerance="10"
     guidetolerance="10"
     inkscape:pageopacity="0"
     inkscape:pageshadow="2"
     inkscape:window-width="1366"
     inkscape:window-height="699"
     id="namedview829"
     showgrid="false"
     inkscape:zoom="22.083334"
     inkscape:cx="9.9336173"
     inkscape:cy="11.420465"
     inkscape:window-x="-8"
     inkscape:window-y="-8"
     inkscape:window-maximized="1"
     inkscape:current-layer="svg827" />
  <path
     inkscape:connector-curvature="0"
     style="fill-rule:evenodd;stroke-width:0.20816621;shape-rendering:geometricPrecision"
     d="m 23.858486,4.5519886 c 0,0.085348 -0.02706,0.1623693 -0.0791,0.2331454 -0.05413,0.068699 -0.110328,0.1040831 -0.17486,0.1040831 -0.518334,0.049963 -0.945075,0.2164935 -1.273978,0.5016813 -0.330984,0.283106 -0.670295,0.8264191 -1.022095,1.6257778 L 15.937765,19.11946 c -0.03539,0.11241 -0.133227,0.168615 -0.295596,0.168615 -0.126982,0 -0.22482,-0.05621 -0.295596,-0.168615 L 12.334408,12.820351 8.8705225,19.11946 c -0.07077,0.11241 -0.168615,0.168615 -0.2955958,0.168615 -0.154043,0 -0.2560444,-0.05621 -0.3060041,-0.168615 L 2.9919059,7.0166762 C 2.6630029,6.2651962 2.3153654,5.7406169 1.9489933,5.4429392 1.5847023,5.1452623 1.0746954,4.959994 0.42313477,4.8892171 c -0.056208,0 -0.1103278,-0.029145 -0.1582065,-0.089511 -0.049963,-0.058282 -0.074936,-0.1269812 -0.074936,-0.2040027 0,-0.1977582 0.056208,-0.295596 0.1686147,-0.295596 0.470456,0 0.96172753,0.020818 1.47589873,0.062454 0.4767006,0.043718 0.9263395,0.064528 1.3468349,0.064528 0.4288226,0 0.9346667,-0.020818 1.5175322,-0.064528 0.6099264,-0.041636 1.1511585,-0.062454 1.6216145,-0.062454 0.1124095,0 0.1686147,0.097838 0.1686147,0.295596 0,0.1956763 -0.035391,0.2935141 -0.1040832,0.2935141 -0.470456,0.03539 -0.8409916,0.1561248 -1.1116077,0.3580465 -0.270616,0.2040028 -0.4059244,0.4704552 -0.4059244,0.80144 0,0.1686139 0.056208,0.3788612 0.1686146,0.6307432 L 9.3971825,16.527791 11.872279,11.852378 9.5657985,7.0166762 C 9.1515465,6.1548678 8.8101545,5.5969829 8.5437014,5.3471832 8.2772489,5.0994652 7.8734062,4.9454223 7.3321741,4.8892171 c -0.049963,0 -0.095756,-0.029145 -0.141553,-0.089511 -0.045799,-0.058282 -0.068691,-0.1269812 -0.068691,-0.2040027 0,-0.1977582 0.047881,-0.295596 0.1477976,-0.295596 0.470456,0 0.9013596,0.020818 1.2947941,0.062454 0.3788617,0.043718 0.7827047,0.064528 1.2115267,0.064528 0.4204955,0 0.8659715,-0.020818 1.3364265,-0.064528 0.485028,-0.041636 0.961728,-0.062454 1.432184,-0.062454 0.112409,0 0.168614,0.097838 0.168614,0.295596 0,0.1956763 -0.03331,0.2935141 -0.104083,0.2935141 -0.940911,0.064536 -1.411366,0.3309848 -1.411366,0.80144 0,0.2102482 0.108246,0.5370694 0.32682,0.9783807 l 1.525859,3.0975145 1.517531,-2.8331435 c 0.210248,-0.399679 0.316413,-0.7369076 0.316413,-1.0116872 0,-0.6453153 -0.470456,-0.9887893 -1.411367,-1.0325045 -0.08535,0 -0.126981,-0.097838 -0.126981,-0.2935141 0,-0.070773 0.02082,-0.1373894 0.06245,-0.1998392 0.04372,-0.064528 0.08535,-0.095757 0.126982,-0.095757 0.337229,0 0.75148,0.020818 1.242752,0.062454 0.470456,0.043718 0.857645,0.064528 1.159486,0.064528 0.216492,0 0.537068,-0.018736 0.957564,-0.054127 0.532906,-0.047881 0.980463,-0.072855 1.338509,-0.072855 0.08327,0 0.124899,0.083267 0.124899,0.2518816 0,0.224819 -0.07702,0.3372285 -0.231064,0.3372285 -0.547477,0.056208 -0.988789,0.2081664 -1.321855,0.4538025 -0.333066,0.2456362 -0.749398,0.8035218 -1.246915,1.6736564 l -2.023376,3.7407478 2.739467,5.580936 4.044669,-9.4049508 c 0.139472,-0.343473 0.210248,-0.659887 0.210248,-0.9471559 0,-0.6890297 -0.470455,-1.0533208 -1.411366,-1.097036 -0.08535,0 -0.126982,-0.097838 -0.126982,-0.2935141 0,-0.1977582 0.06245,-0.295596 0.189432,-0.295596 0.343474,0 0.751479,0.020818 1.221935,0.062454 0.435067,0.043718 0.80144,0.064528 1.094954,0.064528 0.310168,0 0.668214,-0.020818 1.074138,-0.064528 0.422577,-0.041636 0.80144,-0.062454 1.138669,-0.062454 0.09784,0 0.147798,0.083267 0.147798,0.2518816 z"
     id="path835" />
</svg>
