<?xml version="1.0" encoding="UTF-8" standalone="no"?>
<svg
   xmlns:dc="http://purl.org/dc/elements/1.1/"
   xmlns:cc="http://creativecommons.org/ns#"
   xmlns:rdf="http://www.w3.org/1999/02/22-rdf-syntax-ns#"
   xmlns:svg="http://www.w3.org/2000/svg"
   xmlns="http://www.w3.org/2000/svg"
   xmlns:sodipodi="http://sodipodi.sourceforge.net/DTD/sodipodi-0.dtd"
   xmlns:inkscape="http://www.inkscape.org/namespaces/inkscape"
   width="24"
   height="24"
   viewBox="0 0 24 24"
   version="1.1"
   id="svg3725"
   sodipodi:docname="tracking_erase.svg"
   inkscape:version="0.92.4 (5da689c313, 2019-01-14)">
  <metadata
     id="metadata3731">
    <rdf:RDF>
      <cc:Work
         rdf:about="">
        <dc:format>image/svg+xml</dc:format>
        <dc:type
           rdf:resource="http://purl.org/dc/dcmitype/StillImage" />
        <dc:title></dc:title>
      </cc:Work>
    </rdf:RDF>
  </metadata>
  <defs
     id="defs3729" />
  <sodipodi:namedview
     pagecolor="#ffffff"
     bordercolor="#666666"
     borderopacity="1"
     objecttolerance="10"
     gridtolerance="10"
     guidetolerance="10"
     inkscape:pageopacity="0"
     inkscape:pageshadow="2"
     inkscape:window-width="1366"
     inkscape:window-height="699"
     id="namedview3727"
     showgrid="false"
     inkscape:zoom="7.8076374"
     inkscape:cx="13.132648"
     inkscape:cy="7.4185446"
     inkscape:window-x="-8"
     inkscape:window-y="-8"
     inkscape:window-maximized="1"
     inkscape:current-layer="svg3725" />
  <path
     d="m 4.8426863,19.60924 c -0.5059766,0 -1.0051713,-0.08954 -1.482662,-0.264519 L 3.9121229,17.84578 c 0.299788,0.109876 0.6117847,0.165494 0.9305634,0.165494 0.352692,0 0.6972449,-0.06783 1.0228066,-0.200764 l 0.6063587,1.478595 C 5.953666,19.502076 5.4056369,19.60924 4.8426863,19.60924 Z m 11.7609187,-1.062145 -2.250446,-1.2819 0.790845,-1.389065 2.251802,1.2819 z m -8.7562547,-0.02714 -0.8206868,-1.37143 2.2233151,-1.330733 0.8206874,1.371428 z m 5.3147967,-1.909961 c -0.329632,-0.137008 -0.678253,-0.207547 -1.036373,-0.207547 -0.311996,0 -0.619922,0.05426 -0.914286,0.161425 l -0.543959,-1.503009 c 0.469352,-0.169564 0.960408,-0.255024 1.458245,-0.256381 0.569735,0 1.125902,0.111234 1.650871,0.330987 z M 1.3144111,16.38889 c -0.72573142,0 -1.314455677688,0.587369 -1.314455677688,1.313099 0,0.725732 0.588724257688,1.313101 1.314455677688,1.313101 0.7257315,0 1.3144559,-0.588726 1.3144559,-1.313101 C 2.627527,16.976259 2.0401426,16.38889 1.3144111,16.38889 Z m 22.6577429,4.042393 -1.758033,-1.728191 1.726834,-1.753964 -0.960408,-0.952267 -1.725478,1.756676 -1.755319,-1.725478 -0.953625,0.952268 1.758033,1.730905 -1.726835,1.758033 0.953626,0.953625 1.73226,-1.760747 1.756677,1.729548 z"
     id="path3723"
     inkscape:connector-curvature="0"
     sodipodi:nodetypes="sccsccscccccccccccscccccssscsccccccccccccc"
     style="stroke-width:1.3565073" />
  <path
     inkscape:connector-curvature="0"
     d="M 8.1014425,3.8716982 V 12.090566 H 16.32031 V 3.8716982 Z m 2.2830185,6.3924528 c 0,0.252045 -0.204559,0.456604 -0.4566038,0.456604 -0.2520452,0 -0.4566037,-0.204559 -0.4566037,-0.456604 V 5.6981132 c 0,-0.2520452 0.2045585,-0.4566038 0.4566037,-0.4566038 0.2520448,0 0.4566038,0.2045586 0.4566038,0.4566038 z m 2.283018,0 c 0,0.252045 -0.204558,0.456604 -0.456603,0.456604 -0.252045,0 -0.456603,-0.204559 -0.456603,-0.456604 V 5.6981132 c 0,-0.2520452 0.204558,-0.4566038 0.456603,-0.4566038 0.252045,0 0.456603,0.2045586 0.456603,0.4566038 z m 2.28302,0 c 0,0.252045 -0.204559,0.456604 -0.456604,0.456604 -0.252045,0 -0.456604,-0.204559 -0.456604,-0.456604 V 5.6981132 c 0,-0.2520452 0.204559,-0.4566038 0.456604,-0.4566038 0.252045,0 0.456604,0.2045586 0.456604,0.4566038 z M 16.776914,2.0452831 V 2.9584906 H 7.6448382 V 2.0452831 h 2.6076638 c 0.410943,0 0.744721,-0.5018076 0.744721,-0.9132076 h 2.42685 c 0,0.4114 0.33332,0.9132076 0.74472,0.9132076 z"
     id="path4651"
     style="stroke-width:0.45660377" />
</svg>
